<!-- created by svgstack.com | Attribution is required. --><svg xmlns="http://www.w3.org/2000/svg" width="1024" height="1024"><path fill="#41435B" d="M308.922 310.208c4.092-50.124 18.944-156.84 68.374-174.488 29.7-10.604 46.592 25.698 73.606 28.625 34.86 3.777 58.778-56.516 95.864-18.153 33.668 34.829 50.804 116.984 50.11 164.016 12.452 2.29 24.802 5.83 37.142 8.714 5.282 1.236 51.796 7.086 36.048 18.386-12.254 8.792-36.738 19.47-50.822 27.04 36.04 25.084 20.636 82.948-29.49 79.326-7.12 44.442-38.804 87.228-80.566 104.334v40.196l149.738 47.298c11.88 3.696 26.18 6.602 36.682 13.404 1.486-5.546 2.264-11.204 3.908-16.742-109.068-56.588-70.134-223.726 55.452-221.638 99.718 1.658 152.288 130.204 76.478 201.72-23.874 22.522-54.274 32.02-86.67 31-4.784 13.482-7.488 33.876-8.19 48.298 15.14.254 28.042 8.696 26.6 25.252-.678 7.768-4.864 37.89-10.71 42.834-1.39 4.662-1.072 10.596-1.072 15.458-.634 4.448-5.006 21.152-6.628 23.94-1.93 3.876-2.61 9.364-3.228 13.662 6.638 3.36 3.84 9.63 0 13.952 5.934 7.836 10.424 38.35 9.976 47.096-.152 2.966-2.338 4.654-4.378 6.496l-547.198.018c-48.291.006-46.2 9.358-41.794-42.238l3.897-47.372c1.868-23.132 1.204-47.51 6.892-70.082 12.26-48.65 46.921-75.618 92.133-89.878l94.21-30.264c12.792-4.046 31.508-8.172 42.714-14.916v-35.384c-44.514-21.404-77.564-57.05-83.238-108.428l-5.416-.066c-42.496-.774-58.06-48.65-25.592-79.456-4.406-2.464-68.448-27.02-45.398-34.914 18.84-6.45 50.366-12.186 70.566-17.046m447.316 304.95c48.9-2.292 86.716-43.734 84.532-92.638-2.186-48.904-43.548-86.81-92.456-84.73-49.058 2.086-87.104 43.602-84.912 92.654 2.192 49.054 43.788 87.01 92.836 84.714M464.02 637.046c15.96 9.482 29.244 23.518 45.168 33.218 3.454 2.754 6.982 5.448 10.372 8.278 8.69-18.516 14.646-45.092 22.082-65.19-11.078-3.718-25.638-9.776-36.73-11.942-12.06 12.868-27.802 23.646-40.892 35.636m-76.61 55.712 15.326 41.524c3.126 8.388 6.622 16.762 9.154 25.348 1.904 5.442 3.558 10.616 6.786 15.458 2-22.138 6.034-72.042 12.008-92.202-6.614-4.666-7.172-7.916-12.008-12.622-10.94 6.316-21.372 14.648-31.266 22.494m-27.626-77.85c1.506 4.332 3.18 8.692 4.48 13.086.728.708.894 1.038 1.896 1.318l.014-.466c.248-6.32 4.774-12.012 3.902-18.262-3.574 1.224-6.902 2.66-10.292 4.324M492.532 759.63l15.586-46.26c2.372-7.23 4.236-14.696 6.868-21.826-8.858-5.614-20.28-15.992-28.966-20.062-3.138 5.15-6.25 10.294-11.304 13.8 2.202 19.894 8.324 66.444 13.796 85.41 1.33-3.668 2.528-7.462 4.02-11.062m238.264-117.774c-6.098-1.558-12.404-3.728-18.576-4.81-1.634 5.892-2.456 12.106-3.526 18.124l-5.464 30.112c6.318.858 12.864 1.66 19.072 3.082 2.142-15.378 4.002-31.644 8.494-46.508"/><path fill="#FBD3A1" d="m652.7 799.028.402-2.408c4.062-23.778 10.482-71.67 17.678-93.73 4.71-14.436 30.082-4.598 40.194-2.84 11.906 2.072 33.488 1.438 40.43 12.596-2.842 12.912-6.66 27.144-7.602 40.36-.422 5.948 3.386 6.958 8.674 6.624-1.39 4.662-1.072 10.596-1.072 15.458-.634 4.448-5.006 21.152-6.628 23.94-1.93 3.876-2.61 9.364-3.228 13.662-20.834-5.842-68.118-12.246-88.848-13.662"/><path fill="#41435B" d="M744.776 799.028c-3.368-.066-6.074-1.088-7.98-4.112-1.25-7.76.516-33.524 14.608-19.828-.634 4.448-5.006 21.152-6.628 23.94"/><path fill="#8FCCEC" d="M744.044 425.206c56.398-4.138 105.486 38.194 109.684 94.588s-38.08 105.528-94.47 109.786c-56.474 4.266-105.7-38.092-109.904-94.572-4.206-56.48 38.206-105.658 94.69-109.802m12.194 189.952c48.9-2.292 86.716-43.734 84.532-92.638-2.186-48.904-43.548-86.81-92.456-84.73-49.058 2.086-87.104 43.602-84.912 92.654 2.192 49.054 43.788 87.01 92.836 84.714"/><path fill="#41435B" d="M748.314 437.79c48.908-2.08 90.27 35.826 92.456 84.73 2.184 48.904-35.632 90.346-84.532 92.638-49.048 2.296-90.644-35.66-92.836-84.714-2.192-49.052 35.854-90.568 84.912-92.654m73.266 61.468c-11.32-28.826-39.218-47.71-70.188-47.504-30.968.204-58.616 19.454-69.552 48.428-10.938 28.974-2.908 61.692 20.202 82.31 1.176-3.082-3.336-9.246-4-12.658-11.386-58.514 53.178-106.778 106.178-80.516 4.658 2.308 12.79 9.342 17.36 9.94"/><path fill="#DDDBDE" d="M702.042 582.492c1.176-3.082-3.336-9.246-4-12.658-11.386-58.514 53.178-106.778 106.178-80.516 4.658 2.308 12.79 9.342 17.36 9.94 12.668 32.264 1.536 69.004-26.908 88.812-28.446 19.806-66.768 17.498-92.63-5.578"/><path fill="#898A98" d="M294.28 635.062c2.436 4.72-3.508 47.768 1.584 55.904 2.218 3.548 30.3 5.532 36.27 6.782-5.944 7.254-32.426 45.158-33.906 51.796 3.302 7.316 38.616 42.746 46.79 51.456 18.91 20.156 41.788 43.818 58.62 65.006-44.678.15-89.444.504-134.114 0V851.25c-.018-3.946 4.886-58.124-11.532-43.786-4.686 4.092-2.49 16.768-2.482 22.248l.044 36.294h-84.985c1.17-25.748 3.888-51.58 5.727-77.3 1.25-17.482 1.13-37.214 4.41-54.276 13.22-68.772 57.976-81.568 113.574-99.368"/><path fill="#FBD3A1" d="M327.464 382.764c88.742 38.474 159.682 42.6 251.1 2.438.378 54.146-1.318 62.706-23.94 108.04-4.668 5.368-9.24 10.91-14.234 15.978-47.684 48.4-128.096 49.584-176.296 1.192-39.464-39.622-36.688-77.402-36.63-127.648"/><path fill="#6A6261" d="M384.984 148.013c25.09-1.144 49.096 50.73 95.054 25.13 14.464-8.056 35.174-33.652 52.134-20.514 26.108 20.224 42.31 85.715 46.392 117.311h-251.1c9.13-33.39 22.298-112.728 57.52-121.927"/><path fill="#6A6261" d="M318.066 324.546c6.108-1.062 12.806-.046 18.956.35 53.508 3.448 120.376 2.436 174.206 1.052 42.756-1.098 89.148-6.89 129.51 10.586l-2.704 1.174c-22.956 9.808-47.496 25.88-71.908 37.032-117.416 46.66-197.484 20.872-300.986-38.206 16.27-4.628 36.12-10.208 52.926-11.988"/><path fill="#898A98" d="m606.058 635.062.628.056c11.294.904 75.236 21.74 86.496 26.974-.928 6.948-2.112 13.87-3.22 20.794-27.322-8.282-32.396 16.074-35.912 34.93l-5.952 33.098c-2.726 15.81-6.968 32.082-7.36 48.114-26.114-.3-21.564 5.85-21.538 27.812l.044 39.166H499.822c13.068-13.116 24.624-27.58 36.93-41.382l43.18-48.77c6.402-7.332 20.408-21.604 23.884-29.672-7.172-13.072-25.522-35.208-35.012-48.434 6.698-.638 33.34-3.16 37.466-7.644 4.118-4.474 1.48-18.466 1.21-23.884z"/><path fill="#898A98" d="m346.246 618.53.656.226c2.588 6.242 3.96 13.518 6.146 19.99 17.262 51.11 36.762 101.472 55.948 151.876 9.596 25.208 18.652 50.584 29.292 75.384-5.266.118-10.506.096-15.77 0-8.8-10.61-17.724-20.958-27.196-30.978l-80.56-87.09c5.536-9.098 35.602-49.692 36.654-55.848 2.242-13.096-32.286-10.988-42.494-12.156-.67-16.71-.018-33.71 0-50.452 12.534-1.822 25.144-7.368 37.324-10.952"/><path fill="#898A98" d="M554.624 618.53c10.106.964 27.596 7.722 37.864 10.952-.246 16.342 1.83 32.728.936 49.06-30.038 11.44-60.624-3.424-33.178 32.606 8.888 11.668 18.452 22.946 26.752 35.034-4.346 5.392-9.274 10.424-13.816 15.666l-42.086 48.114c-6.33 7.304-12.968 14.446-18.744 22.202-4.49 3.958-8.274 8.864-12.126 13.432l-17.182 20.41c-4.548.058-9.086.064-13.634 0 3.522-13.512 9.432-27 14.258-40.142 15.732-42.832 30.296-86.092 44.734-129.372z"/><path fill="#F8B814" d="M562.618 283.884c6.484-.268 12.976-.398 19.458 0-.73 8.766.524 17.53 0 26.324H324.632c-.084-8.794.44-17.582 1.41-26.324 26.52-.302 53.078-.01 79.6-.008z"/><path fill="#EB6F60" d="M442.102 691.544c6.772.16 13.502.286 20.272 0 .932 23.032 8.916 61.014 12.724 85.094 3.986 25.206 4.638 18.518-4.026 42.8l-13.802 38.938c-.976 2.574-2.04 5.1-3.12 7.63-3.686-6.348-24.372-56.242-24.996-61.692-2.186-19.09 11.016-88.512 12.948-112.77"/><path fill="#898A98" d="M635.484 812.69c15.814-2.496 82.522 9.446 98.708 13.952a27.3 27.3 0 0 0-3.396 5.522c.674 11.276 3.56 22.77 5.79 33.842h-103.61c.034-17.556-.892-35.496.132-52.998l.616-.508z"/><path fill="#FBD3A1" d="M411.89 555.816c30.074 6.386 53.31 7.552 83.098-1.564v37.396c-12.96 13.358-28.796 24.11-42.776 36.346-13.776-11.174-27.152-22.714-40.322-34.598v-18.422c-.004-6.384-.072-12.776 0-19.158"/><path fill="#D69B67" d="M411.89 555.816c30.074 6.386 53.31 7.552 83.098-1.564v25.256c-29.602 8.93-54.624 7.92-83.098-4.534-.004-6.384-.072-12.776 0-19.158"/><path fill="#DDDBDE" d="M370.076 610.584c9.32-2.956 18.748-5.798 27.924-9.174 15.244 11.194 28.636 24.626 44.102 35.636-19.08 9.326-40.546 29.578-59.494 41.496-6.164-16.69-11.378-34.22-18.344-50.548.728.708.894 1.038 1.896 1.318l.014-.466c.248-6.32 4.774-12.012 3.902-18.262"/><path fill="#FBD3A1" d="M301.06 370.924c4.02 1.534 7.846 3.542 11.698 5.454-.014 17.158.484 34.43 0 51.574-5.874-.36-10.756-1.2-16.218-3.434-24.286-12.524-21.054-41.68 4.52-53.594"/><path fill="#FBD3A1" d="M603.816 374.74c14.43-4.29 33.966 37.83 6.582 50.466-5.992 4.158-10.826 4.754-17.91 4.456-.428-6.1-.1-12.234-.062-18.344l.062-32.112c3.606-1.878 7.492-3.146 11.328-4.466"/><path fill="#EB6F60" d="M450.478 648.906h6.792c6.046 3.968 11.656 8.83 17.446 13.186-3.344 8.204-8.708 13.838-17.446 16.45-13.454-.692-20.474-3.462-26.586-16.45 5.618-4.798 12.258-12.076 19.794-13.186"/></svg>